<?xml version="1.0" standalone="no"?>
<!DOCTYPE svg PUBLIC "-//W3C//DTD SVG 20010904//EN"
 "http://www.w3.org/TR/2001/REC-SVG-20010904/DTD/svg10.dtd">
<svg version="1.0" xmlns="http://www.w3.org/2000/svg"
 width="160.000000pt" height="160.000000pt" viewBox="0 0 160.000000 160.000000"
 preserveAspectRatio="xMidYMid meet">
<metadata>
Created by potrace 1.11, written by Peter Selinger 2001-2013
</metadata>
<g transform="translate(0.000000,160.000000) scale(0.100000,-0.100000)"
fill="#000000" stroke="none">
<path d="M749 1496 c-2 -2 -22 -7 -43 -10 -72 -12 -167 -65 -229 -129 -102
-105 -135 -196 -150 -421 -2 -28 -5 -30 -44 -31 -24 -1 -46 -5 -50 -9 -10 -9
-11 -783 -2 -798 8 -12 1117 -16 1136 -5 11 7 12 792 0 803 -4 5 -27 8 -50 9
l-42 1 -2 54 c-3 100 -12 157 -34 216 -54 147 -166 257 -309 303 -35 11 -174
24 -181 17z m175 -186 c121 -57 182 -165 189 -332 3 -56 0 -68 -12 -69 -9 -1
-150 -2 -313 -3 -260 -1 -298 1 -299 14 -6 97 22 224 64 285 84 121 242 166
371 105z"/>
</g>
</svg>
